<svg version="1.1"
	 xmlns="http://www.w3.org/2000/svg" xmlns:xlink="http://www.w3.org/1999/xlink" 
	 x="0px" y="0px" width="120.6px" height="27.6px" viewBox="0 0 120.6 27.6" style="enable-background:new 0 0 120.6 27.6;"
	 xml:space="preserve">
<style type="text/css">
	.st0{fill-rule:evenodd;clip-rule:evenodd;fill:#FFFFFF;}
	.st1{fill-rule:evenodd;clip-rule:evenodd;fill:#E5AC21;}
</style>
<defs>
</defs>
<g>
	<path class="st0" d="M81.2,10.3h-1.5l-0.7,2h2.3l0,0h0.6l0.9,2.5h2.7L81.1,2.8h-3.2l-4.4,11.9h2.5c1.7-4.7,1.4-3.9,3.4-9.6
		L81.2,10.3L81.2,10.3z M100.4,14.8v-2.1h9v2.1L100.4,14.8L100.4,14.8z M100.4,9.8V7.7h9v2.1L100.4,9.8L100.4,9.8z M38,14.7
		L33.9,2.9h2.7l3,9.4l3-9.4h2.6l-4.1,11.9H38L38,14.7z M47.2,14.7V2.9h2.6v4.7l4.6-4.7h3l-4.5,4.6l4.9,7.3h-3.1l-3.6-5.5l-1.3,1.4
		v4.2H47.2L47.2,14.7z M87.4,14.7V2.9H90l5,8v-8h2.4v11.9h-2.6l-5-8v8H87.4L87.4,14.7z M100.4,5V2.9h9V5L100.4,5L100.4,5z M112,14.7
		V2.9h2.6v9.8h6.1v2.1H112L112,14.7z M62.7,14.7V8.4h3.4v0h1.6c0.6,0,1-0.2,1.4-0.5c0.4-0.3,0.6-0.8,0.6-1.3c0-0.6-0.2-1-0.5-1.3
		c-0.3-0.3-0.8-0.5-1.4-0.5h-1.6v0h-3.4v-2h5.6c1.3,0,2.3,0.3,3,1c0.7,0.7,1.1,1.6,1.1,2.8c0,1.2-0.4,2.1-1.2,2.8
		c-0.8,0.7-1.8,1-3.1,1h-2.7v4.3H62.7z"/>
	<path class="st1" d="M21.4,0H1C0.5,0,0,0.5,0,1l0.1,26.6l4.4-7.1L4.5,5c0-0.3,0.3-0.6,0.6-0.6h12.3C17.7,4.4,18,4.7,18,5l0,6.9
		c0,0.3-0.3,0.6-0.6,0.6l-7.7,0L7,16.9h14.3c0.6,0,1-0.5,1-1V1C22.4,0.5,21.9,0,21.4,0z"/>
</g>
</svg>
